<svg id="Capa_1" enable-background="new 0 0 512 512" height="512" viewBox="0 0 512 512" width="512" xmlns="http://www.w3.org/2000/svg"><g><path d="m363.783 251.79-107.783-107.783-15 63.435 15 63.435c48.985 0 88.695 39.71 88.695 88.695s-39.71 88.695-88.695 88.695l-15 31.866 15 31.867c84.183 0 152.428-68.244 152.428-152.428 0-42.091-17.062-80.198-44.645-107.782z" fill="#1188d9"/><path d="m270.15 63.733h74.545v-63.733h-74.545c-4.8 0-9.523.338-14.15.978l-30 32.702 30 32.702c4.389-1.704 9.158-2.649 14.15-2.649z" fill="#1188d9"/><path d="m167.305 359.572c0-48.985 39.71-88.695 88.695-88.695v-126.87l-13.506-13.506c-7.335-7.335-11.456-17.283-11.456-27.656 0-16.609 10.358-30.79 24.962-36.462v-65.405c-50.036 6.916-88.695 49.958-88.695 101.867 0 27.47 10.698 53.297 30.123 72.722l33.622 33.622c-72.312 11.909-127.477 74.698-127.477 150.383-.001 84.184 68.244 152.428 152.427 152.428v-63.733c-48.985 0-88.695-39.71-88.695-88.695z" fill="#0ea8ed"/></g></svg>